<?xml version="1.0" encoding="utf-8"?>
<!-- Generator: Adobe Illustrator 16.0.0, SVG Export Plug-In . SVG Version: 6.00 Build 0)  -->
<!DOCTYPE svg PUBLIC "-//W3C//DTD SVG 1.1//EN" "http://www.w3.org/Graphics/SVG/1.1/DTD/svg11.dtd">
<svg version="1.1" id="Layer_1" xmlns="http://www.w3.org/2000/svg" xmlns:xlink="http://www.w3.org/1999/xlink" x="0px" y="0px"
	 width="176px" height="50px" viewBox="0 0 176 50" enable-background="new 0 0 176 50" xml:space="preserve">
<g>
	<path fill="#444B5D" d="M13.52,32.927c0-0.24,0.006-0.425,0.02-0.552s0.049-0.221,0.108-0.28c0.059-0.061,0.15-0.098,0.275-0.11
		c0.125-0.014,0.305-0.021,0.541-0.021c0.236,0,0.416,0.007,0.541,0.021c0.125,0.013,0.216,0.05,0.275,0.11
		c0.059,0.06,0.095,0.153,0.108,0.28s0.02,0.312,0.02,0.552v9.951h3.146c0.944,0,1.671-0.021,2.183-0.061s0.885-0.181,1.121-0.421
		c0.236-0.241,0.374-0.622,0.413-1.144c0.039-0.521,0.059-1.264,0.059-2.228v-6.099c0-0.24,0.007-0.425,0.02-0.552
		c0.013-0.127,0.049-0.221,0.108-0.28c0.059-0.061,0.15-0.098,0.275-0.11c0.125-0.014,0.305-0.021,0.541-0.021
		s0.416,0.007,0.541,0.021c0.124,0.013,0.216,0.05,0.275,0.11c0.059,0.06,0.095,0.153,0.108,0.28c0.013,0.127,0.02,0.312,0.02,0.552
		v6.099c0,0.964-0.01,1.772-0.029,2.428c-0.02,0.655-0.082,1.197-0.187,1.625c-0.105,0.429-0.272,0.76-0.501,0.993
		c-0.229,0.234-0.554,0.405-0.973,0.512c-0.419,0.107-0.951,0.171-1.593,0.19c-0.642,0.021-1.435,0.03-2.379,0.03h-3.775
		c-0.314,0-0.557-0.007-0.728-0.021c-0.17-0.013-0.295-0.06-0.374-0.14c-0.079-0.081-0.125-0.208-0.138-0.382
		s-0.02-0.421-0.02-0.742V32.927z"/>
	<path fill="#444B5D" d="M26.28,31.964c0-0.254,0.006-0.448,0.02-0.582s0.052-0.233,0.118-0.301c0.065-0.066,0.164-0.106,0.295-0.12
		c0.131-0.014,0.321-0.021,0.57-0.021c0.249,0,0.439,0.007,0.57,0.021s0.229,0.054,0.295,0.12c0.065,0.067,0.105,0.167,0.118,0.301
		c0.013,0.134,0.02,0.328,0.02,0.582s-0.007,0.448-0.02,0.582c-0.013,0.134-0.053,0.234-0.118,0.301
		c-0.065,0.067-0.164,0.107-0.295,0.12c-0.131,0.014-0.321,0.021-0.57,0.021c-0.25,0-0.439-0.007-0.57-0.021
		c-0.131-0.013-0.229-0.053-0.295-0.12c-0.066-0.066-0.105-0.167-0.118-0.301S26.28,32.218,26.28,31.964z M26.339,35.496
		c0-0.241,0.006-0.425,0.02-0.552s0.049-0.221,0.108-0.281c0.059-0.06,0.15-0.097,0.275-0.11c0.125-0.013,0.305-0.02,0.541-0.02
		c0.236,0,0.416,0.007,0.541,0.02c0.125,0.014,0.216,0.051,0.275,0.11c0.059,0.061,0.095,0.154,0.108,0.281s0.02,0.311,0.02,0.552
		v8.346c0,0.24-0.006,0.425-0.02,0.552s-0.049,0.221-0.108,0.28c-0.059,0.061-0.151,0.098-0.275,0.11
		c-0.125,0.014-0.305,0.021-0.541,0.021c-0.236,0-0.417-0.007-0.541-0.021c-0.125-0.013-0.216-0.05-0.275-0.11
		c-0.059-0.06-0.095-0.153-0.108-0.28s-0.02-0.312-0.02-0.552V35.496z"/>
	<path fill="#444B5D" d="M36.799,42.878c0.275,0,0.485-0.007,0.629-0.021c0.144-0.013,0.252-0.057,0.324-0.13
		c0.072-0.073,0.115-0.184,0.128-0.331c0.013-0.147,0.02-0.361,0.02-0.643c0-0.28-0.007-0.494-0.02-0.642
		c-0.013-0.147-0.056-0.258-0.128-0.331c-0.072-0.073-0.18-0.117-0.324-0.131c-0.145-0.013-0.354-0.02-0.629-0.02h-3.46
		c-0.747,0-1.321-0.017-1.72-0.05c-0.4-0.033-0.695-0.147-0.885-0.342c-0.19-0.193-0.302-0.494-0.334-0.902
		s-0.049-0.993-0.049-1.756c0-0.762,0.016-1.347,0.049-1.755s0.144-0.709,0.334-0.903c0.19-0.193,0.485-0.308,0.885-0.341
		c0.399-0.033,0.973-0.05,1.72-0.05h5.191c0.236,0,0.416,0.007,0.541,0.02c0.125,0.014,0.216,0.051,0.275,0.11
		c0.059,0.061,0.095,0.154,0.108,0.281s0.02,0.311,0.02,0.552c0,0.24-0.007,0.425-0.02,0.552s-0.049,0.221-0.108,0.28
		c-0.059,0.061-0.151,0.098-0.275,0.11c-0.125,0.014-0.305,0.021-0.541,0.021h-5.191c-0.275,0-0.485,0.007-0.629,0.02
		c-0.145,0.014-0.252,0.058-0.325,0.131s-0.115,0.184-0.127,0.331c-0.013,0.147-0.02,0.361-0.02,0.642
		c0,0.281,0.007,0.495,0.02,0.643c0.013,0.147,0.055,0.258,0.127,0.331s0.18,0.117,0.325,0.13c0.144,0.014,0.354,0.021,0.629,0.021
		h3.46c0.747,0,1.32,0.017,1.721,0.05c0.399,0.033,0.694,0.147,0.885,0.341c0.189,0.194,0.301,0.495,0.334,0.903
		s0.049,0.993,0.049,1.755c0,0.763-0.017,1.348-0.049,1.756s-0.145,0.709-0.334,0.902c-0.19,0.194-0.485,0.309-0.885,0.342
		c-0.4,0.033-0.974,0.05-1.721,0.05h-5.505c-0.236,0-0.416-0.007-0.541-0.021c-0.125-0.013-0.216-0.05-0.275-0.11
		c-0.059-0.06-0.095-0.153-0.108-0.28c-0.013-0.127-0.02-0.312-0.02-0.552c0-0.241,0.006-0.425,0.02-0.552
		c0.013-0.127,0.049-0.221,0.108-0.281c0.059-0.06,0.151-0.097,0.275-0.11c0.125-0.013,0.305-0.02,0.541-0.02H36.799z"/>
	<path fill="#444B5D" d="M41.753,35.496c0-0.241,0.006-0.425,0.02-0.552c0.013-0.127,0.049-0.221,0.108-0.281
		c0.059-0.06,0.151-0.097,0.275-0.11c0.125-0.013,0.305-0.02,0.541-0.02c0.236,0,0.416,0.007,0.541,0.02
		c0.125,0.014,0.216,0.051,0.275,0.11c0.059,0.061,0.095,0.154,0.108,0.281c0.013,0.127,0.02,0.311,0.02,0.552v4.173
		c0,0.803,0.017,1.421,0.049,1.855s0.147,0.752,0.344,0.953c0.196,0.2,0.508,0.317,0.934,0.351c0.426,0.034,1.032,0.051,1.819,0.051
		s1.393-0.017,1.819-0.051c0.426-0.033,0.737-0.15,0.934-0.351c0.197-0.201,0.312-0.519,0.344-0.953s0.049-1.053,0.049-1.855v-4.173
		c0-0.241,0.006-0.425,0.02-0.552c0.013-0.127,0.049-0.221,0.108-0.281c0.059-0.06,0.15-0.097,0.275-0.11
		c0.125-0.013,0.305-0.02,0.541-0.02c0.236,0,0.416,0.007,0.541,0.02c0.125,0.014,0.216,0.051,0.275,0.11
		c0.059,0.061,0.095,0.154,0.108,0.281s0.02,0.311,0.02,0.552v4.173c0,0.855-0.01,1.574-0.029,2.156s-0.076,1.063-0.167,1.444
		c-0.092,0.382-0.239,0.676-0.442,0.883c-0.204,0.208-0.492,0.358-0.865,0.452s-0.846,0.15-1.416,0.17
		c-0.57,0.021-1.275,0.03-2.114,0.03s-1.543-0.01-2.114-0.03c-0.57-0.02-1.042-0.076-1.416-0.17s-0.662-0.244-0.865-0.452
		c-0.203-0.207-0.351-0.501-0.442-0.883c-0.092-0.381-0.147-0.862-0.167-1.444s-0.029-1.301-0.029-2.156V35.496z"/>
	<path fill="#444B5D" d="M61.966,38.706c0-0.562-0.013-0.993-0.04-1.294c-0.026-0.302-0.108-0.522-0.246-0.662
		c-0.138-0.141-0.354-0.225-0.649-0.251s-0.718-0.04-1.268-0.04h-4.404c-0.236,0-0.416-0.007-0.541-0.021
		c-0.125-0.013-0.216-0.05-0.275-0.11c-0.059-0.06-0.095-0.153-0.108-0.28s-0.02-0.312-0.02-0.552c0-0.241,0.006-0.425,0.02-0.552
		s0.049-0.221,0.108-0.281c0.059-0.06,0.15-0.097,0.275-0.11c0.125-0.013,0.305-0.02,0.541-0.02h3.46
		c0.839,0,1.543,0.01,2.114,0.029c0.57,0.021,1.042,0.077,1.416,0.171s0.662,0.244,0.865,0.451c0.203,0.208,0.351,0.502,0.442,0.883
		c0.091,0.382,0.147,0.863,0.167,1.444c0.02,0.582,0.029,1.301,0.029,2.157v3.852c0,0.321-0.006,0.568-0.02,0.742
		s-0.059,0.301-0.138,0.382c-0.079,0.08-0.203,0.127-0.374,0.14c-0.17,0.014-0.413,0.021-0.728,0.021h-5.82
		c-0.747,0-1.321-0.017-1.72-0.05c-0.4-0.033-0.695-0.147-0.885-0.342c-0.19-0.193-0.302-0.494-0.334-0.902
		s-0.049-0.993-0.049-1.756c0-0.762,0.016-1.347,0.049-1.755s0.144-0.709,0.334-0.903c0.19-0.193,0.485-0.308,0.885-0.341
		c0.399-0.033,0.973-0.05,1.72-0.05H61.966z M61.966,42.878v-2.247h-5.191c-0.275,0-0.485,0.007-0.629,0.02
		c-0.145,0.014-0.252,0.058-0.325,0.131s-0.115,0.184-0.127,0.331c-0.013,0.147-0.02,0.361-0.02,0.642
		c0,0.281,0.007,0.495,0.02,0.643c0.013,0.147,0.055,0.258,0.127,0.331s0.18,0.117,0.325,0.13c0.144,0.014,0.354,0.021,0.629,0.021
		H61.966z"/>
	<path fill="#444B5D" d="M65.977,31.643c0-0.24,0.006-0.424,0.02-0.552c0.013-0.127,0.049-0.221,0.108-0.28
		c0.059-0.061,0.15-0.097,0.275-0.11s0.305-0.021,0.541-0.021c0.236,0,0.416,0.007,0.541,0.021s0.216,0.05,0.275,0.11
		c0.059,0.06,0.095,0.153,0.108,0.28c0.013,0.128,0.02,0.312,0.02,0.552v12.198c0,0.24-0.006,0.425-0.02,0.552
		s-0.049,0.221-0.108,0.28c-0.059,0.061-0.151,0.098-0.275,0.11c-0.125,0.014-0.305,0.021-0.541,0.021
		c-0.236,0-0.417-0.007-0.541-0.021c-0.125-0.013-0.216-0.05-0.275-0.11c-0.059-0.06-0.095-0.153-0.108-0.28s-0.02-0.312-0.02-0.552
		V31.643z"/>
	<path fill="#444B5D" d="M76.259,33.249c0-0.321,0.006-0.568,0.02-0.742s0.059-0.301,0.138-0.382c0.079-0.08,0.203-0.127,0.374-0.14
		c0.17-0.014,0.413-0.021,0.728-0.021h3.775c1.049,0,1.93,0.01,2.645,0.03c0.715,0.02,1.305,0.09,1.77,0.211
		c0.465,0.12,0.826,0.311,1.082,0.571c0.255,0.261,0.441,0.629,0.56,1.104s0.187,1.077,0.206,1.806
		c0.02,0.729,0.03,1.628,0.03,2.698s-0.011,1.97-0.03,2.698c-0.02,0.729-0.088,1.331-0.206,1.806s-0.305,0.843-0.56,1.104
		c-0.256,0.261-0.617,0.451-1.082,0.571c-0.465,0.121-1.055,0.191-1.77,0.211c-0.714,0.021-1.596,0.03-2.645,0.03h-3.775
		c-0.314,0-0.557-0.007-0.728-0.021c-0.17-0.013-0.295-0.06-0.374-0.14c-0.079-0.081-0.125-0.208-0.138-0.382
		s-0.02-0.421-0.02-0.742V33.249z M81.292,42.878c0.734,0,1.35-0.007,1.848-0.021c0.498-0.013,0.912-0.063,1.239-0.15
		s0.58-0.221,0.757-0.401c0.178-0.181,0.309-0.438,0.394-0.772c0.085-0.334,0.134-0.755,0.147-1.264
		c0.013-0.508,0.02-1.137,0.02-1.886s-0.007-1.377-0.02-1.886c-0.014-0.508-0.062-0.93-0.147-1.264
		c-0.085-0.335-0.216-0.592-0.394-0.772c-0.177-0.181-0.43-0.314-0.757-0.401s-0.741-0.137-1.239-0.15s-1.114-0.021-1.848-0.021
		h-3.146v8.988H81.292z"/>
	<path fill="#444B5D" d="M98.043,42.878c0.236,0,0.416,0.007,0.541,0.02c0.125,0.014,0.217,0.051,0.275,0.11
		c0.059,0.061,0.096,0.154,0.108,0.281s0.02,0.311,0.02,0.552c0,0.24-0.007,0.425-0.02,0.552s-0.05,0.221-0.108,0.28
		c-0.059,0.061-0.15,0.098-0.275,0.11c-0.125,0.014-0.305,0.021-0.541,0.021h-3.46c-0.839,0-1.544-0.01-2.114-0.03
		c-0.569-0.02-1.041-0.076-1.415-0.17s-0.662-0.244-0.865-0.452c-0.203-0.207-0.351-0.501-0.442-0.883
		c-0.092-0.381-0.147-0.862-0.167-1.444s-0.029-1.301-0.029-2.156c0-0.856,0.01-1.575,0.029-2.157
		c0.02-0.581,0.075-1.062,0.167-1.444c0.092-0.381,0.239-0.675,0.442-0.883c0.203-0.207,0.491-0.357,0.865-0.451
		s0.846-0.15,1.415-0.171c0.57-0.02,1.275-0.029,2.114-0.029s1.544,0.01,2.114,0.029c0.569,0.021,1.041,0.077,1.415,0.171
		s0.661,0.241,0.865,0.441c0.203,0.2,0.351,0.479,0.442,0.833s0.147,0.802,0.167,1.344s0.029,1.207,0.029,1.996
		c0,0.321-0.007,0.568-0.02,0.742s-0.06,0.301-0.138,0.382c-0.078,0.08-0.203,0.127-0.373,0.14
		c-0.171,0.014-0.413,0.021-0.729,0.021h-6.92c0,0.562,0.013,0.993,0.039,1.294c0.025,0.301,0.107,0.521,0.246,0.662
		c0.137,0.141,0.354,0.224,0.648,0.251c0.295,0.026,0.718,0.04,1.268,0.04H98.043z M97.729,38.706c0-0.562-0.013-0.993-0.039-1.294
		c-0.026-0.302-0.107-0.522-0.246-0.662c-0.137-0.141-0.354-0.225-0.648-0.251s-0.718-0.04-1.268-0.04h-1.889
		c-0.55,0-0.973,0.014-1.268,0.04s-0.512,0.11-0.648,0.251c-0.139,0.14-0.221,0.36-0.246,0.662
		c-0.026,0.301-0.039,0.731-0.039,1.294H97.729z"/>
	<path fill="#444B5D" d="M108.031,42.878c0.275,0,0.485-0.007,0.63-0.021c0.144-0.013,0.252-0.057,0.324-0.13
		c0.071-0.073,0.114-0.184,0.128-0.331c0.013-0.147,0.02-0.361,0.02-0.643c0-0.28-0.007-0.494-0.02-0.642
		c-0.014-0.147-0.057-0.258-0.128-0.331c-0.072-0.073-0.181-0.117-0.324-0.131c-0.145-0.013-0.354-0.02-0.63-0.02h-3.46
		c-0.747,0-1.321-0.017-1.72-0.05c-0.4-0.033-0.695-0.147-0.885-0.342c-0.191-0.193-0.303-0.494-0.335-0.902
		s-0.049-0.993-0.049-1.756c0-0.762,0.017-1.347,0.049-1.755s0.144-0.709,0.335-0.903c0.189-0.193,0.484-0.308,0.885-0.341
		c0.398-0.033,0.973-0.05,1.72-0.05h5.19c0.236,0,0.416,0.007,0.541,0.02c0.125,0.014,0.217,0.051,0.275,0.11
		c0.059,0.061,0.095,0.154,0.107,0.281c0.014,0.127,0.021,0.311,0.021,0.552c0,0.24-0.007,0.425-0.021,0.552
		c-0.013,0.127-0.049,0.221-0.107,0.28c-0.059,0.061-0.15,0.098-0.275,0.11c-0.125,0.014-0.305,0.021-0.541,0.021h-5.19
		c-0.274,0-0.485,0.007-0.629,0.02c-0.145,0.014-0.253,0.058-0.325,0.131s-0.114,0.184-0.127,0.331
		c-0.014,0.147-0.02,0.361-0.02,0.642c0,0.281,0.006,0.495,0.02,0.643c0.013,0.147,0.055,0.258,0.127,0.331s0.181,0.117,0.325,0.13
		c0.144,0.014,0.354,0.021,0.629,0.021h3.46c0.748,0,1.32,0.017,1.721,0.05s0.695,0.147,0.885,0.341
		c0.189,0.194,0.302,0.495,0.334,0.903c0.033,0.408,0.05,0.993,0.05,1.755c0,0.763-0.017,1.348-0.05,1.756
		c-0.032,0.408-0.145,0.709-0.334,0.902c-0.189,0.194-0.484,0.309-0.885,0.342s-0.973,0.05-1.721,0.05h-5.505
		c-0.235,0-0.416-0.007-0.54-0.021c-0.125-0.013-0.217-0.05-0.275-0.11c-0.059-0.06-0.096-0.153-0.108-0.28s-0.02-0.312-0.02-0.552
		c0-0.241,0.007-0.425,0.02-0.552s0.05-0.221,0.108-0.281c0.059-0.06,0.15-0.097,0.275-0.11c0.124-0.013,0.305-0.02,0.54-0.02
		H108.031z"/>
	<path fill="#444B5D" d="M113.084,31.964c0-0.254,0.007-0.448,0.02-0.582c0.014-0.134,0.053-0.233,0.119-0.301
		c0.064-0.066,0.163-0.106,0.295-0.12c0.131-0.014,0.32-0.021,0.57-0.021c0.248,0,0.438,0.007,0.569,0.021s0.229,0.054,0.295,0.12
		c0.065,0.067,0.104,0.167,0.118,0.301c0.013,0.134,0.02,0.328,0.02,0.582s-0.007,0.448-0.02,0.582
		c-0.014,0.134-0.053,0.234-0.118,0.301c-0.065,0.067-0.164,0.107-0.295,0.12c-0.131,0.014-0.321,0.021-0.569,0.021
		c-0.25,0-0.439-0.007-0.57-0.021c-0.132-0.013-0.23-0.053-0.295-0.12c-0.066-0.066-0.105-0.167-0.119-0.301
		C113.091,32.413,113.084,32.218,113.084,31.964z M113.144,35.496c0-0.241,0.007-0.425,0.02-0.552s0.05-0.221,0.108-0.281
		c0.059-0.06,0.15-0.097,0.275-0.11c0.124-0.013,0.305-0.02,0.541-0.02c0.235,0,0.416,0.007,0.54,0.02
		c0.124,0.014,0.216,0.051,0.275,0.11c0.06,0.061,0.095,0.154,0.108,0.281c0.013,0.127,0.02,0.311,0.02,0.552v8.346
		c0,0.24-0.007,0.425-0.02,0.552c-0.014,0.127-0.049,0.221-0.108,0.28c-0.06,0.061-0.151,0.098-0.275,0.11
		c-0.124,0.014-0.305,0.021-0.54,0.021c-0.236,0-0.417-0.007-0.541-0.021c-0.125-0.013-0.217-0.05-0.275-0.11
		c-0.059-0.06-0.096-0.153-0.108-0.28s-0.02-0.312-0.02-0.552V35.496z"/>
	<path fill="#444B5D" d="M123.445,46.73c0.473,0,0.836-0.01,1.092-0.03c0.256-0.02,0.442-0.09,0.561-0.21
		c0.117-0.121,0.187-0.312,0.206-0.572c0.021-0.261,0.03-0.632,0.03-1.113h-3.146c-0.839,0-1.543-0.01-2.113-0.03
		c-0.57-0.02-1.043-0.076-1.416-0.17s-0.662-0.244-0.865-0.452c-0.203-0.207-0.351-0.501-0.442-0.883
		c-0.092-0.381-0.147-0.862-0.167-1.444s-0.029-1.301-0.029-2.156c0-0.856,0.01-1.575,0.029-2.157
		c0.02-0.581,0.075-1.062,0.167-1.444c0.092-0.381,0.239-0.675,0.442-0.883c0.203-0.207,0.492-0.357,0.865-0.451
		s0.846-0.15,1.416-0.171c0.57-0.02,1.274-0.029,2.113-0.029h3.775c0.314,0,0.557,0.007,0.727,0.02
		c0.171,0.014,0.295,0.061,0.374,0.141s0.124,0.207,0.138,0.381s0.02,0.422,0.02,0.742v8.025c0,0.803-0.006,1.478-0.02,2.026
		c-0.014,0.548-0.066,0.999-0.157,1.354c-0.092,0.354-0.229,0.628-0.413,0.822c-0.184,0.193-0.452,0.338-0.807,0.432
		c-0.354,0.093-0.799,0.146-1.336,0.16c-0.538,0.013-1.199,0.02-1.986,0.02h-3.775c-0.235,0-0.416-0.007-0.54-0.02
		c-0.125-0.014-0.216-0.051-0.275-0.11c-0.06-0.061-0.095-0.154-0.108-0.281s-0.02-0.311-0.02-0.552c0-0.24,0.006-0.425,0.02-0.552
		s0.049-0.221,0.108-0.28c0.06-0.061,0.15-0.098,0.275-0.11c0.124-0.014,0.305-0.021,0.54-0.021H123.445z M125.334,42.878v-6.42
		h-3.146c-0.787,0-1.393,0.017-1.818,0.05c-0.426,0.034-0.738,0.15-0.934,0.352c-0.197,0.2-0.312,0.519-0.345,0.953
		s-0.05,1.053-0.05,1.855s0.018,1.421,0.05,1.855s0.147,0.752,0.345,0.953c0.195,0.2,0.508,0.317,0.934,0.351
		c0.426,0.034,1.031,0.051,1.818,0.051H125.334z"/>
	<path fill="#444B5D" d="M129.345,35.816c0-0.32,0.007-0.568,0.02-0.742s0.06-0.301,0.138-0.381s0.203-0.127,0.373-0.141
		c0.171-0.013,0.414-0.02,0.729-0.02h3.774c0.839,0,1.544,0.01,2.114,0.029c0.57,0.021,1.041,0.077,1.415,0.171
		s0.661,0.244,0.865,0.451c0.203,0.208,0.351,0.502,0.442,0.883c0.092,0.382,0.147,0.863,0.167,1.444
		c0.02,0.582,0.029,1.301,0.029,2.157v4.173c0,0.24-0.007,0.425-0.02,0.552s-0.049,0.221-0.108,0.28
		c-0.059,0.061-0.15,0.098-0.275,0.11c-0.124,0.014-0.305,0.021-0.54,0.021c-0.236,0-0.417-0.007-0.541-0.021
		c-0.124-0.013-0.216-0.05-0.274-0.11c-0.06-0.06-0.096-0.153-0.109-0.28c-0.013-0.127-0.02-0.312-0.02-0.552v-4.173
		c0-0.803-0.016-1.421-0.049-1.855s-0.147-0.753-0.344-0.953c-0.197-0.201-0.508-0.317-0.934-0.352
		c-0.427-0.033-1.033-0.05-1.819-0.05h-3.146v7.383c0,0.24-0.007,0.425-0.02,0.552c-0.014,0.127-0.05,0.221-0.108,0.28
		c-0.06,0.061-0.151,0.098-0.275,0.11c-0.125,0.014-0.305,0.021-0.54,0.021c-0.236,0-0.417-0.007-0.541-0.021
		c-0.125-0.013-0.217-0.05-0.275-0.11c-0.059-0.06-0.096-0.153-0.108-0.28s-0.02-0.312-0.02-0.552V35.816z"/>
	<path fill="#444B5D" d="M149.871,42.878c0.236,0,0.416,0.007,0.541,0.02c0.124,0.014,0.216,0.051,0.275,0.11
		c0.059,0.061,0.095,0.154,0.107,0.281c0.014,0.127,0.02,0.311,0.02,0.552c0,0.24-0.006,0.425-0.02,0.552
		c-0.013,0.127-0.049,0.221-0.107,0.28c-0.06,0.061-0.151,0.098-0.275,0.11c-0.125,0.014-0.305,0.021-0.541,0.021h-3.461
		c-0.838,0-1.543-0.01-2.113-0.03c-0.57-0.02-1.042-0.076-1.416-0.17c-0.373-0.094-0.662-0.244-0.865-0.452
		c-0.203-0.207-0.35-0.501-0.441-0.883c-0.092-0.381-0.148-0.862-0.168-1.444s-0.029-1.301-0.029-2.156
		c0-0.856,0.01-1.575,0.029-2.157c0.02-0.581,0.076-1.062,0.168-1.444c0.092-0.381,0.238-0.675,0.441-0.883
		c0.203-0.207,0.492-0.357,0.865-0.451c0.374-0.094,0.846-0.15,1.416-0.171c0.57-0.02,1.275-0.029,2.113-0.029
		c0.84,0,1.544,0.01,2.114,0.029c0.569,0.021,1.042,0.077,1.415,0.171c0.374,0.094,0.662,0.241,0.865,0.441s0.352,0.479,0.443,0.833
		c0.091,0.354,0.146,0.802,0.166,1.344s0.029,1.207,0.029,1.996c0,0.321-0.006,0.568-0.02,0.742
		c-0.013,0.174-0.059,0.301-0.137,0.382c-0.079,0.08-0.203,0.127-0.374,0.14c-0.171,0.014-0.413,0.021-0.728,0.021h-6.921
		c0,0.562,0.013,0.993,0.04,1.294c0.025,0.301,0.107,0.521,0.245,0.662s0.354,0.224,0.649,0.251c0.295,0.026,0.717,0.04,1.268,0.04
		H149.871z M149.557,38.706c0-0.562-0.014-0.993-0.039-1.294c-0.027-0.302-0.108-0.522-0.246-0.662
		c-0.138-0.141-0.354-0.225-0.648-0.251s-0.719-0.04-1.269-0.04h-1.888c-0.551,0-0.973,0.014-1.268,0.04s-0.512,0.11-0.649,0.251
		c-0.138,0.14-0.22,0.36-0.245,0.662c-0.027,0.301-0.04,0.731-0.04,1.294H149.557z"/>
	<path fill="#444B5D" d="M153.488,35.816c0-0.32,0.007-0.568,0.02-0.742c0.014-0.174,0.06-0.301,0.139-0.381
		c0.078-0.08,0.203-0.127,0.373-0.141c0.17-0.013,0.413-0.02,0.728-0.02h3.146c0.943,0,1.672,0.02,2.183,0.06
		s0.885,0.181,1.12,0.422c0.236,0.24,0.375,0.622,0.414,1.144s0.059,1.264,0.059,2.227c0,0.241-0.007,0.425-0.02,0.552
		c-0.014,0.127-0.049,0.221-0.108,0.281c-0.06,0.06-0.151,0.097-0.275,0.11c-0.124,0.013-0.305,0.02-0.54,0.02
		c-0.236,0-0.417-0.007-0.541-0.02c-0.125-0.014-0.217-0.051-0.275-0.11c-0.059-0.061-0.096-0.154-0.108-0.281
		s-0.02-0.311-0.02-0.552c0-0.481-0.01-0.853-0.029-1.113s-0.089-0.451-0.206-0.572c-0.119-0.12-0.305-0.19-0.561-0.21
		c-0.256-0.021-0.619-0.03-1.092-0.03h-2.517v7.383c0,0.24-0.007,0.425-0.02,0.552s-0.05,0.221-0.108,0.28
		c-0.059,0.061-0.15,0.098-0.275,0.11c-0.125,0.014-0.305,0.021-0.54,0.021c-0.236,0-0.417-0.007-0.541-0.021
		c-0.124-0.013-0.216-0.05-0.275-0.11c-0.059-0.06-0.095-0.153-0.108-0.28c-0.013-0.127-0.02-0.312-0.02-0.552V35.816z"/>
</g>
<g>
	<path fill="#E73D28" d="M13.327,2.825c0-0.47,0.01-0.833,0.029-1.088c0.02-0.254,0.088-0.441,0.206-0.559
		c0.117-0.116,0.303-0.186,0.559-0.205c0.254-0.021,0.618-0.03,1.087-0.03h9.174c1.47,0,2.603,0.03,3.396,0.088
		c0.794,0.058,1.372,0.259,1.735,0.603c0.362,0.343,0.578,0.877,0.647,1.603c0.069,0.725,0.102,1.764,0.102,3.117
		s-0.033,2.392-0.102,3.117s-0.285,1.259-0.647,1.603c-0.363,0.343-0.941,0.543-1.735,0.602c-0.793,0.06-1.916,0.088-3.366,0.088
		l5.498,5.5c0.254,0.255,0.446,0.451,0.574,0.587c0.127,0.137,0.191,0.275,0.191,0.413c0,0.098-0.073,0.239-0.221,0.425
		c-0.147,0.188-0.323,0.377-0.529,0.574c-0.207,0.196-0.407,0.368-0.603,0.514c-0.196,0.148-0.334,0.221-0.412,0.221
		c-0.117,0-0.249-0.063-0.396-0.191c-0.147-0.127-0.337-0.308-0.573-0.543l-7.498-7.499H16.15v6.588c0,0.353-0.01,0.622-0.029,0.808
		c-0.02,0.187-0.073,0.324-0.162,0.413s-0.226,0.142-0.412,0.161c-0.187,0.021-0.456,0.03-0.809,0.03
		c-0.354,0-0.623-0.009-0.809-0.03c-0.187-0.019-0.323-0.072-0.411-0.161s-0.143-0.226-0.162-0.413
		c-0.02-0.186-0.029-0.455-0.029-0.808V2.825z M24.383,8.941c0.765,0,1.353-0.015,1.764-0.044c0.412-0.03,0.711-0.127,0.897-0.294
		c0.186-0.167,0.299-0.422,0.338-0.765C27.421,7.496,27.441,7,27.441,6.354s-0.02-1.142-0.059-1.485
		c-0.04-0.344-0.152-0.598-0.338-0.764c-0.186-0.167-0.485-0.266-0.897-0.294c-0.411-0.03-1-0.044-1.764-0.044H16.15v5.175H24.383z"
		/>
	<path fill="#E73D28" d="M45.907,16.939c0.353,0,0.622,0.011,0.809,0.03c0.186,0.019,0.323,0.074,0.412,0.162
		c0.088,0.088,0.142,0.225,0.162,0.411c0.019,0.187,0.029,0.455,0.029,0.809c0,0.353-0.01,0.622-0.029,0.808
		c-0.02,0.187-0.074,0.324-0.162,0.413c-0.088,0.088-0.226,0.142-0.412,0.161c-0.187,0.021-0.456,0.03-0.809,0.03h-5.175
		c-1.255,0-2.309-0.014-3.162-0.044c-0.852-0.03-1.558-0.111-2.116-0.25c-0.559-0.137-0.99-0.358-1.293-0.662
		c-0.305-0.304-0.525-0.735-0.662-1.294c-0.138-0.558-0.221-1.265-0.25-2.117c-0.029-0.854-0.044-1.907-0.044-3.161
		c0-1.254,0.015-2.309,0.044-3.16c0.029-0.854,0.113-1.559,0.25-2.118c0.136-0.559,0.357-0.99,0.662-1.294
		c0.303-0.304,0.734-0.524,1.293-0.661c0.559-0.137,1.264-0.221,2.116-0.25c0.854-0.029,1.907-0.044,3.162-0.044
		c1.254,0,2.308,0.015,3.161,0.044c0.853,0.03,1.558,0.113,2.117,0.25c0.559,0.137,0.989,0.353,1.293,0.647
		c0.304,0.294,0.524,0.701,0.662,1.22c0.137,0.52,0.22,1.176,0.249,1.97c0.03,0.794,0.044,1.77,0.044,2.925
		c0,0.471-0.01,0.834-0.029,1.088c-0.02,0.255-0.088,0.441-0.207,0.559c-0.117,0.118-0.303,0.188-0.558,0.207
		s-0.618,0.03-1.088,0.03h-10.35c0,0.822,0.019,1.455,0.058,1.896c0.04,0.44,0.162,0.765,0.368,0.97
		c0.206,0.206,0.529,0.329,0.971,0.368c0.441,0.04,1.073,0.059,1.896,0.059H45.907z M45.437,10.823c0-0.824-0.021-1.456-0.059-1.897
		c-0.039-0.441-0.162-0.764-0.368-0.97c-0.206-0.207-0.529-0.328-0.97-0.367C43.598,7.55,42.966,7.53,42.143,7.53H39.32
		c-0.824,0-1.456,0.02-1.896,0.059c-0.442,0.04-0.765,0.161-0.971,0.367c-0.206,0.206-0.328,0.529-0.368,0.97
		c-0.039,0.441-0.058,1.073-0.058,1.897H45.437z"/>
	<path fill="#E73D28" d="M60.844,16.939c0.412,0,0.725-0.01,0.941-0.029c0.215-0.02,0.377-0.083,0.485-0.192
		c0.108-0.107,0.172-0.27,0.191-0.485c0.019-0.216,0.029-0.529,0.029-0.941c0-0.411-0.01-0.725-0.029-0.94
		c-0.02-0.216-0.083-0.378-0.191-0.485c-0.108-0.109-0.27-0.171-0.485-0.191c-0.216-0.02-0.529-0.029-0.941-0.029h-5.175
		c-1.117,0-1.975-0.025-2.573-0.074c-0.598-0.049-1.04-0.216-1.323-0.5c-0.285-0.284-0.451-0.724-0.5-1.322
		c-0.049-0.599-0.073-1.455-0.073-2.573c0-1.118,0.024-1.974,0.073-2.573c0.049-0.598,0.215-1.039,0.5-1.323
		c0.284-0.285,0.725-0.452,1.323-0.5c0.598-0.049,1.456-0.074,2.573-0.074h7.763c0.353,0,0.622,0.011,0.809,0.03
		c0.186,0.02,0.324,0.074,0.411,0.162c0.088,0.088,0.142,0.225,0.162,0.411c0.019,0.188,0.029,0.457,0.029,0.81
		c0,0.353-0.01,0.622-0.029,0.808c-0.02,0.187-0.073,0.324-0.162,0.412c-0.087,0.088-0.225,0.142-0.411,0.162
		C64.053,7.52,63.784,7.53,63.431,7.53h-7.763c-0.412,0-0.725,0.01-0.941,0.029c-0.215,0.02-0.377,0.083-0.485,0.19
		c-0.108,0.108-0.172,0.271-0.191,0.485c-0.02,0.217-0.029,0.53-0.029,0.941s0.009,0.726,0.029,0.941
		c0.019,0.216,0.083,0.378,0.191,0.485c0.107,0.107,0.27,0.172,0.485,0.191c0.216,0.02,0.529,0.03,0.941,0.03h5.175
		c1.118,0,1.975,0.025,2.573,0.073c0.598,0.05,1.039,0.217,1.323,0.5c0.284,0.285,0.451,0.726,0.5,1.323
		c0.048,0.598,0.073,1.456,0.073,2.573c0,1.118-0.025,1.976-0.073,2.573c-0.05,0.598-0.217,1.041-0.5,1.324
		c-0.285,0.284-0.726,0.451-1.323,0.499c-0.598,0.051-1.455,0.074-2.573,0.074h-8.233c-0.353,0-0.623-0.009-0.809-0.03
		c-0.187-0.019-0.324-0.072-0.412-0.161c-0.088-0.088-0.142-0.226-0.162-0.413c-0.02-0.186-0.029-0.455-0.029-0.808
		c0-0.354,0.01-0.622,0.029-0.809c0.02-0.186,0.074-0.323,0.162-0.411c0.088-0.088,0.226-0.143,0.412-0.162
		c0.186-0.019,0.456-0.03,0.809-0.03H60.844z"/>
	<path fill="#E73D28" d="M71.547,7.53h-2.823c-0.353,0-0.623-0.01-0.808-0.029c-0.187-0.021-0.324-0.074-0.412-0.162
		c-0.088-0.088-0.143-0.225-0.162-0.412c-0.019-0.186-0.03-0.455-0.03-0.808c0-0.353,0.011-0.622,0.03-0.81
		c0.019-0.186,0.073-0.322,0.162-0.411s0.226-0.142,0.412-0.162c0.186-0.019,0.456-0.03,0.808-0.03h2.823V2.354
		c0-0.353,0.009-0.622,0.029-0.808c0.02-0.186,0.074-0.325,0.162-0.412c0.088-0.088,0.224-0.142,0.411-0.161
		c0.187-0.021,0.457-0.03,0.81-0.03s0.622,0.009,0.809,0.03c0.186,0.019,0.323,0.073,0.412,0.161
		c0.088,0.087,0.142,0.226,0.161,0.412s0.029,0.455,0.029,0.808v2.352h2.823c0.353,0,0.622,0.011,0.808,0.03
		c0.186,0.02,0.324,0.074,0.412,0.162s0.142,0.225,0.161,0.411c0.02,0.188,0.03,0.457,0.03,0.81c0,0.353-0.01,0.622-0.03,0.808
		c-0.02,0.187-0.073,0.324-0.161,0.412c-0.088,0.088-0.226,0.142-0.412,0.162C77.815,7.52,77.545,7.53,77.193,7.53H74.37v10.821
		c0,0.353-0.01,0.622-0.029,0.808c-0.02,0.187-0.073,0.324-0.161,0.413c-0.088,0.088-0.226,0.142-0.412,0.161
		c-0.187,0.021-0.456,0.03-0.809,0.03s-0.623-0.009-0.81-0.03c-0.187-0.019-0.323-0.072-0.411-0.161
		c-0.088-0.088-0.143-0.226-0.162-0.413c-0.02-0.186-0.029-0.455-0.029-0.808V7.53z"/>
	<path fill="#E73D28" d="M92.835,16.939c0.353,0,0.622,0.011,0.809,0.03c0.186,0.019,0.323,0.074,0.411,0.162
		c0.089,0.088,0.143,0.225,0.162,0.411c0.02,0.187,0.029,0.455,0.029,0.809c0,0.353-0.01,0.622-0.029,0.808
		c-0.02,0.187-0.073,0.324-0.162,0.413c-0.088,0.088-0.226,0.142-0.411,0.161c-0.187,0.021-0.456,0.03-0.809,0.03h-4.234
		c-1.255,0-2.308-0.014-3.162-0.044c-0.853-0.03-1.558-0.111-2.117-0.25c-0.559-0.137-0.99-0.358-1.294-0.662
		c-0.304-0.304-0.524-0.735-0.661-1.294c-0.138-0.558-0.221-1.265-0.25-2.117c-0.029-0.854-0.044-1.907-0.044-3.161
		c0-1.254,0.015-2.309,0.044-3.16c0.029-0.854,0.112-1.559,0.25-2.118c0.137-0.559,0.357-0.99,0.661-1.294
		c0.304-0.304,0.735-0.524,1.294-0.661c0.559-0.137,1.264-0.221,2.117-0.25c0.854-0.029,1.907-0.044,3.162-0.044h4.234
		c0.353,0,0.622,0.011,0.809,0.03c0.186,0.02,0.323,0.074,0.411,0.162c0.089,0.088,0.143,0.225,0.162,0.411
		c0.02,0.188,0.029,0.457,0.029,0.81c0,0.353-0.01,0.622-0.029,0.808c-0.02,0.187-0.073,0.324-0.162,0.412
		c-0.088,0.088-0.226,0.142-0.411,0.162C93.457,7.52,93.188,7.53,92.835,7.53h-4.234c-1.176,0-2.084,0.025-2.72,0.074
		c-0.637,0.049-1.103,0.221-1.396,0.515c-0.294,0.293-0.466,0.759-0.515,1.396c-0.05,0.638-0.074,1.543-0.074,2.72
		c0,1.176,0.024,2.083,0.074,2.72c0.049,0.637,0.221,1.103,0.515,1.397c0.293,0.293,0.759,0.466,1.396,0.515
		c0.636,0.049,1.544,0.073,2.72,0.073H92.835z"/>
	<path fill="#E73D28" d="M104.715,4.707c1.254,0,2.308,0.015,3.16,0.044c0.854,0.03,1.56,0.113,2.116,0.25
		c0.561,0.137,0.991,0.357,1.294,0.661c0.305,0.305,0.525,0.735,0.664,1.294c0.135,0.559,0.219,1.264,0.249,2.118
		c0.029,0.852,0.043,1.906,0.043,3.16c0,1.254-0.014,2.308-0.043,3.161c-0.03,0.852-0.114,1.559-0.249,2.117
		c-0.139,0.559-0.359,0.99-0.664,1.294c-0.303,0.304-0.733,0.524-1.294,0.662c-0.557,0.138-1.262,0.22-2.116,0.25
		c-0.853,0.03-1.906,0.044-3.16,0.044c-1.256,0-2.309-0.014-3.162-0.044c-0.853-0.03-1.558-0.111-2.117-0.25
		c-0.558-0.137-0.988-0.358-1.294-0.662c-0.304-0.304-0.523-0.735-0.659-1.294c-0.139-0.558-0.222-1.265-0.251-2.117
		c-0.029-0.854-0.045-1.907-0.045-3.161c0-1.254,0.016-2.309,0.045-3.16c0.029-0.854,0.112-1.559,0.251-2.118
		c0.136-0.559,0.355-0.99,0.659-1.294c0.306-0.304,0.736-0.524,1.294-0.661c0.56-0.137,1.265-0.221,2.117-0.25
		C102.406,4.722,103.459,4.707,104.715,4.707z M109.419,12.234c0-1.176-0.025-2.082-0.073-2.72c-0.05-0.637-0.221-1.104-0.515-1.396
		c-0.294-0.294-0.76-0.466-1.396-0.515c-0.638-0.049-1.544-0.074-2.72-0.074c-1.177,0-2.084,0.025-2.72,0.074
		c-0.639,0.049-1.103,0.221-1.396,0.515c-0.295,0.293-0.467,0.759-0.516,1.396c-0.049,0.638-0.072,1.543-0.072,2.72
		c0,1.176,0.023,2.083,0.072,2.72c0.049,0.637,0.221,1.103,0.516,1.397c0.294,0.293,0.758,0.466,1.396,0.515
		c0.636,0.049,1.543,0.073,2.72,0.073c1.176,0,2.082-0.024,2.72-0.073c0.637-0.049,1.103-0.222,1.396-0.515
		c0.294-0.294,0.465-0.76,0.515-1.397C109.394,14.317,109.419,13.41,109.419,12.234z"/>
	<path fill="#E73D28" d="M115.3,6.589c0-0.47,0.01-0.833,0.029-1.087c0.02-0.255,0.089-0.442,0.206-0.559
		c0.117-0.118,0.304-0.186,0.558-0.206c0.255-0.019,0.618-0.03,1.09-0.03h13.173c1.097,0,2.018,0.011,2.765,0.03
		c0.743,0.02,1.359,0.093,1.852,0.221c0.489,0.127,0.867,0.324,1.132,0.588s0.46,0.642,0.588,1.132
		c0.127,0.49,0.201,1.112,0.221,1.866c0.019,0.755,0.029,1.672,0.029,2.75v7.057c0,0.353-0.011,0.622-0.029,0.808
		c-0.02,0.187-0.075,0.324-0.163,0.413s-0.225,0.142-0.41,0.161c-0.188,0.021-0.457,0.03-0.81,0.03s-0.622-0.009-0.808-0.03
		c-0.187-0.019-0.324-0.072-0.413-0.161c-0.088-0.088-0.142-0.226-0.16-0.413c-0.021-0.186-0.03-0.455-0.03-0.808v-7.057
		c0-0.941-0.019-1.666-0.059-2.176c-0.039-0.51-0.176-0.883-0.411-1.118c-0.236-0.234-0.607-0.372-1.117-0.411
		c-0.511-0.039-1.235-0.059-2.176-0.059h-2.823v10.821c0,0.353-0.011,0.622-0.03,0.808c-0.019,0.187-0.074,0.324-0.162,0.413
		c-0.089,0.088-0.224,0.142-0.411,0.161c-0.187,0.021-0.457,0.03-0.809,0.03c-0.354,0-0.622-0.009-0.809-0.03
		c-0.186-0.019-0.324-0.072-0.412-0.161s-0.142-0.226-0.161-0.413c-0.02-0.186-0.029-0.455-0.029-0.808V7.53h-6.586v10.821
		c0,0.353-0.011,0.622-0.03,0.808c-0.019,0.187-0.074,0.324-0.162,0.413c-0.089,0.088-0.224,0.142-0.411,0.161
		c-0.187,0.021-0.456,0.03-0.809,0.03c-0.354,0-0.622-0.009-0.809-0.03c-0.186-0.019-0.324-0.072-0.412-0.161
		c-0.089-0.088-0.142-0.226-0.161-0.413c-0.02-0.186-0.029-0.455-0.029-0.808V6.589z"/>
	<path fill="#E73D28" d="M139.999,6.589c0-0.47,0.011-0.833,0.029-1.087c0.02-0.255,0.089-0.442,0.205-0.559
		c0.119-0.118,0.306-0.186,0.561-0.206c0.253-0.019,0.617-0.03,1.087-0.03h13.174c1.097,0,2.018,0.011,2.764,0.03
		c0.745,0.02,1.362,0.093,1.852,0.221c0.49,0.127,0.867,0.324,1.133,0.588c0.265,0.265,0.46,0.642,0.588,1.132
		s0.201,1.112,0.222,1.866c0.019,0.755,0.028,1.672,0.028,2.75v7.057c0,0.353-0.01,0.622-0.028,0.808
		c-0.021,0.187-0.074,0.324-0.162,0.413s-0.227,0.142-0.412,0.161c-0.187,0.021-0.455,0.03-0.809,0.03
		c-0.353,0-0.623-0.009-0.809-0.03c-0.188-0.019-0.322-0.072-0.411-0.161c-0.088-0.088-0.144-0.226-0.162-0.413
		c-0.02-0.186-0.03-0.455-0.03-0.808v-7.057c0-0.941-0.021-1.666-0.059-2.176c-0.04-0.51-0.177-0.883-0.412-1.118
		c-0.234-0.234-0.607-0.372-1.117-0.411c-0.509-0.039-1.235-0.059-2.175-0.059h-2.823v10.821c0,0.353-0.01,0.622-0.029,0.808
		c-0.02,0.187-0.073,0.324-0.161,0.413c-0.089,0.088-0.227,0.142-0.413,0.161c-0.186,0.021-0.455,0.03-0.808,0.03
		c-0.354,0-0.623-0.009-0.81-0.03c-0.187-0.019-0.322-0.072-0.41-0.161s-0.144-0.226-0.163-0.413
		c-0.019-0.186-0.029-0.455-0.029-0.808V7.53h-6.586v10.821c0,0.353-0.01,0.622-0.029,0.808c-0.021,0.187-0.073,0.324-0.161,0.413
		c-0.089,0.088-0.227,0.142-0.413,0.161c-0.186,0.021-0.455,0.03-0.808,0.03s-0.623-0.009-0.81-0.03
		c-0.188-0.019-0.322-0.072-0.41-0.161c-0.089-0.088-0.144-0.226-0.163-0.413c-0.019-0.186-0.029-0.455-0.029-0.808V6.589z"/>
</g>
</svg>
