<?xml version="1.0" encoding="utf-8"?>
<!-- Generator: Adobe Illustrator 22.0.0, SVG Export Plug-In . SVG Version: 6.00 Build 0)  -->
<svg version="1.1" id="Layer_1" xmlns="http://www.w3.org/2000/svg" xmlns:xlink="http://www.w3.org/1999/xlink" x="0px" y="0px"
	 viewBox="0 0 176.5 47.8" style="enable-background:new 0 0 176.5 47.8;" xml:space="preserve">
<style type="text/css">
	.st0{fill:#444A5D;}
	.st1{fill:#E63D28;}
	.st2{fill:#6E6F71;}
</style>
<g>
	<path class="st0" d="M14,30.4c0-0.2,0-0.4,0-0.6s0-0.2,0.1-0.3c0.1-0.1,0.2-0.1,0.3-0.1c0.1,0,0.3,0,0.5,0c0.2,0,0.4,0,0.5,0
		c0.1,0,0.2,0,0.3,0.1s0.1,0.2,0.1,0.3s0,0.3,0,0.6v10h3.1c0.9,0,1.7,0,2.2-0.1c0.5,0,0.9-0.2,1.1-0.4c0.2-0.2,0.4-0.6,0.4-1.1
		c0-0.5,0.1-1.3,0.1-2.2v-6.1c0-0.2,0-0.4,0-0.6c0-0.1,0-0.2,0.1-0.3s0.2-0.1,0.3-0.1c0.1,0,0.3,0,0.5,0s0.4,0,0.5,0
		c0.1,0,0.2,0,0.3,0.1c0.1,0.1,0.1,0.2,0.1,0.3c0,0.1,0,0.3,0,0.6v6.1c0,1,0,1.8,0,2.4c0,0.7-0.1,1.2-0.2,1.6s-0.3,0.8-0.5,1
		c-0.2,0.2-0.6,0.4-1,0.5c-0.4,0.1-1,0.2-1.6,0.2s-1.4,0-2.4,0h-3.8c-0.3,0-0.6,0-0.7,0s-0.3-0.1-0.4-0.1s-0.1-0.2-0.1-0.4
		s0-0.4,0-0.7V30.4z"/>
	<path class="st0" d="M26.8,29.4c0-0.3,0-0.4,0-0.6c0-0.1,0.1-0.2,0.1-0.3c0.1-0.1,0.2-0.1,0.3-0.1c0.1,0,0.3,0,0.6,0
		c0.2,0,0.4,0,0.6,0s0.2,0.1,0.3,0.1c0.1,0.1,0.1,0.2,0.1,0.3c0,0.1,0,0.3,0,0.6s0,0.4,0,0.6c0,0.1-0.1,0.2-0.1,0.3
		c-0.1,0.1-0.2,0.1-0.3,0.1s-0.3,0-0.6,0c-0.2,0-0.4,0-0.6,0c-0.1,0-0.2-0.1-0.3-0.1c-0.1-0.1-0.1-0.2-0.1-0.3
		C26.8,29.9,26.8,29.7,26.8,29.4z M26.8,32.9c0-0.2,0-0.4,0-0.6s0-0.2,0.1-0.3c0.1-0.1,0.2-0.1,0.3-0.1c0.1,0,0.3,0,0.5,0
		c0.2,0,0.4,0,0.5,0c0.1,0,0.2,0.1,0.3,0.1s0.1,0.2,0.1,0.3s0,0.3,0,0.6v8.3c0,0.2,0,0.4,0,0.6s0,0.2-0.1,0.3
		c-0.1,0.1-0.2,0.1-0.3,0.1s-0.3,0-0.5,0c-0.2,0-0.4,0-0.5,0S27,42.2,27,42.1c-0.1-0.1-0.1-0.2-0.1-0.3s0-0.3,0-0.6V32.9z"/>
	<path class="st0" d="M37.3,40.3c0.3,0,0.5,0,0.6,0c0.1,0,0.3-0.1,0.3-0.1c0.1-0.1,0.1-0.2,0.1-0.3c0-0.1,0-0.4,0-0.6s0-0.5,0-0.6
		c0-0.1-0.1-0.3-0.1-0.3c-0.1-0.1-0.2-0.1-0.3-0.1c-0.1,0-0.4,0-0.6,0h-3.5c-0.7,0-1.3,0-1.7-0.1c-0.4,0-0.7-0.1-0.9-0.3
		c-0.2-0.2-0.3-0.5-0.3-0.9s0-1,0-1.8c0-0.8,0-1.3,0-1.8s0.1-0.7,0.3-0.9c0.2-0.2,0.5-0.3,0.9-0.3c0.4,0,1-0.1,1.7-0.1H39
		c0.2,0,0.4,0,0.5,0c0.1,0,0.2,0.1,0.3,0.1s0.1,0.2,0.1,0.3s0,0.3,0,0.6s0,0.4,0,0.6s0,0.2-0.1,0.3c-0.1,0.1-0.2,0.1-0.3,0.1
		s-0.3,0-0.5,0h-5.2c-0.3,0-0.5,0-0.6,0c-0.1,0-0.3,0.1-0.3,0.1c-0.1,0.1-0.1,0.2-0.1,0.3c0,0.1,0,0.4,0,0.6c0,0.3,0,0.5,0,0.6
		c0,0.1,0.1,0.3,0.1,0.3c0.1,0.1,0.2,0.1,0.3,0.1c0.1,0,0.4,0,0.6,0h3.5c0.7,0,1.3,0,1.7,0c0.4,0,0.7,0.1,0.9,0.3
		c0.2,0.2,0.3,0.5,0.3,0.9s0,1,0,1.8s0,1.3,0,1.8s-0.1,0.7-0.3,0.9c-0.2,0.2-0.5,0.3-0.9,0.3c-0.4,0-1,0-1.7,0h-5.5
		c-0.2,0-0.4,0-0.5,0S31,42.2,31,42.1c-0.1-0.1-0.1-0.2-0.1-0.3c0-0.1,0-0.3,0-0.6s0-0.4,0-0.6c0-0.1,0-0.2,0.1-0.3
		c0.1-0.1,0.2-0.1,0.3-0.1c0.1,0,0.3,0,0.5,0H37.3z"/>
	<path class="st0" d="M42.3,32.9c0-0.2,0-0.4,0-0.6c0-0.1,0-0.2,0.1-0.3c0.1-0.1,0.2-0.1,0.3-0.1c0.1,0,0.3,0,0.5,0
		c0.2,0,0.4,0,0.5,0c0.1,0,0.2,0.1,0.3,0.1c0.1,0.1,0.1,0.2,0.1,0.3c0,0.1,0,0.3,0,0.6v4.2c0,0.8,0,1.4,0,1.9c0,0.4,0.1,0.8,0.3,1
		c0.2,0.2,0.5,0.3,0.9,0.3c0.4,0,1,0.1,1.8,0.1s1.4,0,1.8-0.1c0.4,0,0.7-0.2,0.9-0.3c0.2-0.2,0.3-0.5,0.3-1c0-0.4,0-1.1,0-1.9v-4.2
		c0-0.2,0-0.4,0-0.6c0-0.1,0-0.2,0.1-0.3c0.1-0.1,0.2-0.1,0.3-0.1c0.1,0,0.3,0,0.5,0c0.2,0,0.4,0,0.5,0c0.1,0,0.2,0.1,0.3,0.1
		c0.1,0.1,0.1,0.2,0.1,0.3s0,0.3,0,0.6v4.2c0,0.9,0,1.6,0,2.2s-0.1,1.1-0.2,1.4c-0.1,0.4-0.2,0.7-0.4,0.9c-0.2,0.2-0.5,0.4-0.9,0.5
		s-0.8,0.2-1.4,0.2c-0.6,0-1.3,0-2.1,0s-1.5,0-2.1,0c-0.6,0-1-0.1-1.4-0.2s-0.7-0.2-0.9-0.5c-0.2-0.2-0.4-0.5-0.4-0.9
		c-0.1-0.4-0.1-0.9-0.2-1.4s0-1.3,0-2.2V32.9z"/>
	<path class="st0" d="M62.5,36.2c0-0.6,0-1,0-1.3s-0.1-0.5-0.2-0.7s-0.4-0.2-0.6-0.2c-0.3,0-0.7,0-1.3,0h-4.4c-0.2,0-0.4,0-0.5,0
		c-0.1,0-0.2-0.1-0.3-0.1c-0.1-0.1-0.1-0.2-0.1-0.3s0-0.3,0-0.6s0-0.4,0-0.6s0-0.2,0.1-0.3s0.2-0.1,0.3-0.1c0.1,0,0.3,0,0.5,0h3.5
		c0.8,0,1.5,0,2.1,0c0.6,0,1,0.1,1.4,0.2s0.7,0.2,0.9,0.5c0.2,0.2,0.4,0.5,0.4,0.9c0.1,0.4,0.1,0.9,0.2,1.4c0,0.6,0,1.3,0,2.2V41
		c0,0.3,0,0.6,0,0.7s-0.1,0.3-0.1,0.4s-0.2,0.1-0.4,0.1s-0.4,0-0.7,0h-5.8c-0.7,0-1.3,0-1.7,0c-0.4,0-0.7-0.1-0.9-0.3
		c-0.2-0.2-0.3-0.5-0.3-0.9s0-1,0-1.8s0-1.3,0-1.8s0.1-0.7,0.3-0.9c0.2-0.2,0.5-0.3,0.9-0.3c0.4,0,1,0,1.7,0H62.5z M62.5,40.3v-2.2
		h-5.2c-0.3,0-0.5,0-0.6,0c-0.1,0-0.3,0.1-0.3,0.1c-0.1,0.1-0.1,0.2-0.1,0.3c0,0.1,0,0.4,0,0.6s0,0.5,0,0.6c0,0.1,0.1,0.3,0.1,0.3
		c0.1,0.1,0.2,0.1,0.3,0.1c0.1,0,0.4,0,0.6,0H62.5z"/>
	<path class="st0" d="M66.5,29.1c0-0.2,0-0.4,0-0.6c0-0.1,0-0.2,0.1-0.3c0.1-0.1,0.2-0.1,0.3-0.1s0.3,0,0.5,0c0.2,0,0.4,0,0.5,0
		s0.2,0.1,0.3,0.1c0.1,0.1,0.1,0.2,0.1,0.3c0,0.1,0,0.3,0,0.6v12.2c0,0.2,0,0.4,0,0.6s0,0.2-0.1,0.3c-0.1,0.1-0.2,0.1-0.3,0.1
		s-0.3,0-0.5,0c-0.2,0-0.4,0-0.5,0s-0.2-0.1-0.3-0.1c-0.1-0.1-0.1-0.2-0.1-0.3s0-0.3,0-0.6V29.1z"/>
	<path class="st0" d="M76.8,30.7c0-0.3,0-0.6,0-0.7s0.1-0.3,0.1-0.4c0.1-0.1,0.2-0.1,0.4-0.1c0.2,0,0.4,0,0.7,0h3.8c1,0,1.9,0,2.6,0
		c0.7,0,1.3,0.1,1.8,0.2c0.5,0.1,0.8,0.3,1.1,0.6c0.3,0.3,0.4,0.6,0.6,1.1c0.1,0.5,0.2,1.1,0.2,1.8s0,1.6,0,2.7s0,2,0,2.7
		s-0.1,1.3-0.2,1.8c-0.1,0.5-0.3,0.8-0.6,1.1c-0.3,0.3-0.6,0.5-1.1,0.6s-1.1,0.2-1.8,0.2s-1.6,0-2.6,0H78c-0.3,0-0.6,0-0.7,0
		s-0.3-0.1-0.4-0.1s-0.1-0.2-0.1-0.4s0-0.4,0-0.7V30.7z M81.8,40.3c0.7,0,1.4,0,1.8,0s0.9-0.1,1.2-0.2c0.3-0.1,0.6-0.2,0.8-0.4
		c0.2-0.2,0.3-0.4,0.4-0.8c0.1-0.3,0.1-0.8,0.1-1.3c0-0.5,0-1.1,0-1.9c0-0.7,0-1.4,0-1.9c0-0.5-0.1-0.9-0.1-1.3
		c-0.1-0.3-0.2-0.6-0.4-0.8c-0.2-0.2-0.4-0.3-0.8-0.4c-0.3-0.1-0.7-0.1-1.2-0.2s-1.1,0-1.8,0h-3.1v9H81.8z"/>
	<path class="st0" d="M98.5,40.3c0.2,0,0.4,0,0.5,0c0.1,0,0.2,0.1,0.3,0.1c0.1,0.1,0.1,0.2,0.1,0.3c0,0.1,0,0.3,0,0.6s0,0.4,0,0.6
		c0,0.1,0,0.2-0.1,0.3c-0.1,0.1-0.2,0.1-0.3,0.1c-0.1,0-0.3,0-0.5,0h-3.5c-0.8,0-1.5,0-2.1,0c-0.6,0-1-0.1-1.4-0.2
		c-0.4-0.1-0.7-0.2-0.9-0.5c-0.2-0.2-0.4-0.5-0.4-0.9c-0.1-0.4-0.1-0.9-0.2-1.4s0-1.3,0-2.2c0-0.9,0-1.6,0-2.2
		c0-0.6,0.1-1.1,0.2-1.4s0.2-0.7,0.4-0.9s0.5-0.4,0.9-0.5c0.4-0.1,0.8-0.2,1.4-0.2c0.6,0,1.3,0,2.1,0c0.8,0,1.5,0,2.1,0
		c0.6,0,1,0.1,1.4,0.2c0.4,0.1,0.7,0.2,0.9,0.4c0.2,0.2,0.3,0.5,0.4,0.8c0.1,0.4,0.1,0.8,0.2,1.3c0,0.5,0,1.2,0,2c0,0.3,0,0.6,0,0.7
		c0,0.2-0.1,0.3-0.1,0.4c-0.1,0.1-0.2,0.1-0.4,0.1c-0.2,0-0.4,0-0.7,0h-6.9c0,0.6,0,1,0,1.3c0,0.3,0.1,0.5,0.2,0.7s0.4,0.2,0.6,0.3
		c0.3,0,0.7,0,1.3,0H98.5z M98.2,36.2c0-0.6,0-1,0-1.3c0-0.3-0.1-0.5-0.2-0.7s-0.4-0.2-0.6-0.2c-0.3,0-0.7,0-1.3,0h-1.9
		c-0.5,0-1,0-1.3,0c-0.3,0-0.5,0.1-0.6,0.2S92,34.6,92,34.9c0,0.3,0,0.7,0,1.3H98.2z"/>
	<path class="st0" d="M108.5,40.3c0.3,0,0.5,0,0.6,0c0.1,0,0.3-0.1,0.3-0.1c0.1-0.1,0.1-0.2,0.1-0.3c0-0.1,0-0.4,0-0.6s0-0.5,0-0.6
		c0-0.1-0.1-0.3-0.1-0.3c-0.1-0.1-0.2-0.1-0.3-0.1c-0.1,0-0.4,0-0.6,0h-3.5c-0.7,0-1.3,0-1.7-0.1c-0.4,0-0.7-0.1-0.9-0.3
		c-0.2-0.2-0.3-0.5-0.3-0.9s0-1,0-1.8c0-0.8,0-1.3,0-1.8s0.1-0.7,0.3-0.9c0.2-0.2,0.5-0.3,0.9-0.3c0.4,0,1-0.1,1.7-0.1h5.2
		c0.2,0,0.4,0,0.5,0c0.1,0,0.2,0.1,0.3,0.1s0.1,0.2,0.1,0.3c0,0.1,0,0.3,0,0.6s0,0.4,0,0.6c0,0.1,0,0.2-0.1,0.3
		c-0.1,0.1-0.2,0.1-0.3,0.1s-0.3,0-0.5,0h-5.2c-0.3,0-0.5,0-0.6,0c-0.1,0-0.3,0.1-0.3,0.1c-0.1,0.1-0.1,0.2-0.1,0.3
		c0,0.1,0,0.4,0,0.6c0,0.3,0,0.5,0,0.6c0,0.1,0.1,0.3,0.1,0.3c0.1,0.1,0.2,0.1,0.3,0.1c0.1,0,0.4,0,0.6,0h3.5c0.7,0,1.3,0,1.7,0
		s0.7,0.1,0.9,0.3s0.3,0.5,0.3,0.9c0,0.4,0,1,0,1.8s0,1.3,0,1.8c0,0.4-0.1,0.7-0.3,0.9s-0.5,0.3-0.9,0.3s-1,0-1.7,0H103
		c-0.2,0-0.4,0-0.5,0c-0.1,0-0.2-0.1-0.3-0.1c-0.1-0.1-0.1-0.2-0.1-0.3s0-0.3,0-0.6s0-0.4,0-0.6s0-0.2,0.1-0.3s0.2-0.1,0.3-0.1
		c0.1,0,0.3,0,0.5,0H108.5z"/>
	<path class="st0" d="M113.6,29.4c0-0.3,0-0.4,0-0.6c0-0.1,0.1-0.2,0.1-0.3c0.1-0.1,0.2-0.1,0.3-0.1s0.3,0,0.6,0c0.2,0,0.4,0,0.6,0
		s0.2,0.1,0.3,0.1c0.1,0.1,0.1,0.2,0.1,0.3c0,0.1,0,0.3,0,0.6s0,0.4,0,0.6c0,0.1-0.1,0.2-0.1,0.3c-0.1,0.1-0.2,0.1-0.3,0.1
		s-0.3,0-0.6,0c-0.2,0-0.4,0-0.6,0s-0.2-0.1-0.3-0.1c-0.1-0.1-0.1-0.2-0.1-0.3C113.6,29.9,113.6,29.7,113.6,29.4z M113.6,32.9
		c0-0.2,0-0.4,0-0.6c0-0.1,0-0.2,0.1-0.3s0.2-0.1,0.3-0.1c0.1,0,0.3,0,0.5,0s0.4,0,0.5,0c0.1,0,0.2,0.1,0.3,0.1
		c0.1,0.1,0.1,0.2,0.1,0.3s0,0.3,0,0.6v8.3c0,0.2,0,0.4,0,0.6s0,0.2-0.1,0.3c-0.1,0.1-0.2,0.1-0.3,0.1c-0.1,0-0.3,0-0.5,0
		s-0.4,0-0.5,0s-0.2-0.1-0.3-0.1c-0.1-0.1-0.1-0.2-0.1-0.3c0-0.1,0-0.3,0-0.6V32.9z"/>
	<path class="st0" d="M123.9,44.2c0.5,0,0.8,0,1.1,0s0.4-0.1,0.6-0.2c0.1-0.1,0.2-0.3,0.2-0.6c0-0.3,0-0.6,0-1.1h-3.1
		c-0.8,0-1.5,0-2.1,0s-1-0.1-1.4-0.2c-0.4-0.1-0.7-0.2-0.9-0.5c-0.2-0.2-0.3-0.5-0.4-0.9c-0.1-0.4-0.1-0.9-0.2-1.4s0-1.3,0-2.2
		c0-0.9,0-1.6,0-2.2c0-0.6,0.1-1.1,0.2-1.4s0.2-0.7,0.4-0.9s0.5-0.4,0.9-0.5c0.4-0.1,0.8-0.2,1.4-0.2c0.6,0,1.3,0,2.1,0h3.8
		c0.3,0,0.6,0,0.7,0c0.2,0,0.3,0.1,0.4,0.1c0.1,0.1,0.1,0.2,0.1,0.4c0,0.2,0,0.4,0,0.7v8c0,0.8,0,1.5,0,2c0,0.5-0.1,1-0.2,1.4
		c-0.1,0.4-0.2,0.6-0.4,0.8s-0.5,0.3-0.8,0.4c-0.4,0.1-0.8,0.1-1.3,0.2s-1.2,0-2,0h-3.8c-0.2,0-0.4,0-0.5,0c-0.1,0-0.2-0.1-0.3-0.1
		c-0.1-0.1-0.1-0.2-0.1-0.3c0-0.1,0-0.3,0-0.6c0-0.2,0-0.4,0-0.6c0-0.1,0-0.2,0.1-0.3c0.1-0.1,0.2-0.1,0.3-0.1c0.1,0,0.3,0,0.5,0
		H123.9z M125.8,40.3v-6.4h-3.1c-0.8,0-1.4,0-1.8,0.1s-0.7,0.2-0.9,0.4c-0.2,0.2-0.3,0.5-0.3,1c0,0.4,0,1.1,0,1.9s0,1.4,0,1.9
		c0,0.4,0.1,0.8,0.3,1c0.2,0.2,0.5,0.3,0.9,0.3c0.4,0,1,0.1,1.8,0.1H125.8z"/>
	<path class="st0" d="M129.8,33.3c0-0.3,0-0.6,0-0.7s0.1-0.3,0.1-0.4s0.2-0.1,0.4-0.1c0.2,0,0.4,0,0.7,0h3.8c0.8,0,1.5,0,2.1,0
		c0.6,0,1,0.1,1.4,0.2s0.7,0.2,0.9,0.5c0.2,0.2,0.4,0.5,0.4,0.9s0.1,0.9,0.2,1.4c0,0.6,0,1.3,0,2.2v4.2c0,0.2,0,0.4,0,0.6
		s0,0.2-0.1,0.3c-0.1,0.1-0.2,0.1-0.3,0.1c-0.1,0-0.3,0-0.5,0c-0.2,0-0.4,0-0.5,0s-0.2-0.1-0.3-0.1c-0.1-0.1-0.1-0.2-0.1-0.3
		c0-0.1,0-0.3,0-0.6v-4.2c0-0.8,0-1.4,0-1.9c0-0.4-0.1-0.8-0.3-1c-0.2-0.2-0.5-0.3-0.9-0.4c-0.4,0-1-0.1-1.8-0.1h-3.1v7.4
		c0,0.2,0,0.4,0,0.6c0,0.1,0,0.2-0.1,0.3c-0.1,0.1-0.2,0.1-0.3,0.1c-0.1,0-0.3,0-0.5,0c-0.2,0-0.4,0-0.5,0c-0.1,0-0.2-0.1-0.3-0.1
		c-0.1-0.1-0.1-0.2-0.1-0.3s0-0.3,0-0.6V33.3z"/>
	<path class="st0" d="M150.4,40.3c0.2,0,0.4,0,0.5,0c0.1,0,0.2,0.1,0.3,0.1c0.1,0.1,0.1,0.2,0.1,0.3c0,0.1,0,0.3,0,0.6s0,0.4,0,0.6
		c0,0.1,0,0.2-0.1,0.3c-0.1,0.1-0.2,0.1-0.3,0.1c-0.1,0-0.3,0-0.5,0h-3.5c-0.8,0-1.5,0-2.1,0s-1-0.1-1.4-0.2
		c-0.4-0.1-0.7-0.2-0.9-0.5c-0.2-0.2-0.3-0.5-0.4-0.9c-0.1-0.4-0.1-0.9-0.2-1.4s0-1.3,0-2.2c0-0.9,0-1.6,0-2.2
		c0-0.6,0.1-1.1,0.2-1.4s0.2-0.7,0.4-0.9s0.5-0.4,0.9-0.5c0.4-0.1,0.8-0.2,1.4-0.2c0.6,0,1.3,0,2.1,0c0.8,0,1.5,0,2.1,0
		c0.6,0,1,0.1,1.4,0.2c0.4,0.1,0.7,0.2,0.9,0.4c0.2,0.2,0.4,0.5,0.4,0.8c0.1,0.4,0.1,0.8,0.2,1.3c0,0.5,0,1.2,0,2c0,0.3,0,0.6,0,0.7
		c0,0.2-0.1,0.3-0.1,0.4c-0.1,0.1-0.2,0.1-0.4,0.1c-0.2,0-0.4,0-0.7,0h-6.9c0,0.6,0,1,0,1.3c0,0.3,0.1,0.5,0.2,0.7s0.4,0.2,0.6,0.3
		c0.3,0,0.7,0,1.3,0H150.4z M150.1,36.2c0-0.6,0-1,0-1.3c0-0.3-0.1-0.5-0.2-0.7s-0.4-0.2-0.6-0.2c-0.3,0-0.7,0-1.3,0H146
		c-0.6,0-1,0-1.3,0c-0.3,0-0.5,0.1-0.6,0.2s-0.2,0.4-0.2,0.7c0,0.3,0,0.7,0,1.3H150.1z"/>
	<path class="st0" d="M154,33.3c0-0.3,0-0.6,0-0.7s0.1-0.3,0.1-0.4s0.2-0.1,0.4-0.1c0.2,0,0.4,0,0.7,0h3.1c0.9,0,1.7,0,2.2,0.1
		c0.5,0,0.9,0.2,1.1,0.4c0.2,0.2,0.4,0.6,0.4,1.1s0.1,1.3,0.1,2.2c0,0.2,0,0.4,0,0.6s0,0.2-0.1,0.3c-0.1,0.1-0.2,0.1-0.3,0.1
		c-0.1,0-0.3,0-0.5,0s-0.4,0-0.5,0s-0.2-0.1-0.3-0.1c-0.1-0.1-0.1-0.2-0.1-0.3c0-0.1,0-0.3,0-0.6c0-0.5,0-0.9,0-1.1
		c0-0.3-0.1-0.5-0.2-0.6c-0.1-0.1-0.3-0.2-0.6-0.2c-0.3,0-0.6,0-1.1,0h-2.5v7.4c0,0.2,0,0.4,0,0.6c0,0.1,0,0.2-0.1,0.3
		c-0.1,0.1-0.2,0.1-0.3,0.1c-0.1,0-0.3,0-0.5,0c-0.2,0-0.4,0-0.5,0c-0.1,0-0.2-0.1-0.3-0.1c-0.1-0.1-0.1-0.2-0.1-0.3s0-0.3,0-0.6
		V33.3z"/>
</g>
<g>
	<path class="st1" d="M2.5,3.4c0-0.4,0-0.7,0-0.9c0-0.2,0.1-0.4,0.2-0.5c0.1-0.1,0.2-0.2,0.5-0.2c0.2,0,0.5,0,0.9,0h7.5
		c1.2,0,2.1,0,2.8,0.1c0.7,0,1.1,0.2,1.4,0.5c0.3,0.3,0.5,0.7,0.5,1.3c0.1,0.6,0.1,1.4,0.1,2.6s0,2-0.1,2.6c-0.1,0.6-0.2,1-0.5,1.3
		c-0.3,0.3-0.8,0.4-1.4,0.5c-0.7,0-1.6,0.1-2.8,0.1l4.5,4.5c0.2,0.2,0.4,0.4,0.5,0.5c0.1,0.1,0.2,0.2,0.2,0.3c0,0.1-0.1,0.2-0.2,0.3
		c-0.1,0.2-0.3,0.3-0.4,0.5c-0.2,0.2-0.3,0.3-0.5,0.4c-0.2,0.1-0.3,0.2-0.3,0.2c-0.1,0-0.2-0.1-0.3-0.2s-0.3-0.3-0.5-0.4l-6.1-6.1
		H4.8v5.4c0,0.3,0,0.5,0,0.7c0,0.2-0.1,0.3-0.1,0.3s-0.2,0.1-0.3,0.1c-0.2,0-0.4,0-0.7,0c-0.3,0-0.5,0-0.7,0c-0.2,0-0.3-0.1-0.3-0.1
		s-0.1-0.2-0.1-0.3c0-0.2,0-0.4,0-0.7V3.4z M11.5,8.4c0.6,0,1.1,0,1.4,0c0.3,0,0.6-0.1,0.7-0.2C13.9,8,14,7.8,14,7.5
		c0-0.3,0-0.7,0-1.2s0-0.9,0-1.2s-0.1-0.5-0.3-0.6c-0.2-0.1-0.4-0.2-0.7-0.2c-0.3,0-0.8,0-1.4,0H4.8v4.2H11.5z"/>
	<path class="st1" d="M29.2,14.9c0.3,0,0.5,0,0.7,0s0.3,0.1,0.3,0.1s0.1,0.2,0.1,0.3c0,0.2,0,0.4,0,0.7c0,0.3,0,0.5,0,0.7
		c0,0.2-0.1,0.3-0.1,0.3s-0.2,0.1-0.3,0.1c-0.2,0-0.4,0-0.7,0h-4.2c-1,0-1.9,0-2.6,0c-0.7,0-1.3-0.1-1.7-0.2
		c-0.5-0.1-0.8-0.3-1.1-0.5c-0.2-0.2-0.4-0.6-0.5-1.1c-0.1-0.5-0.2-1-0.2-1.7c0-0.7,0-1.6,0-2.6c0-1,0-1.9,0-2.6
		c0-0.7,0.1-1.3,0.2-1.7c0.1-0.5,0.3-0.8,0.5-1.1c0.2-0.2,0.6-0.4,1.1-0.5C21.1,5,21.6,5,22.3,5c0.7,0,1.6,0,2.6,0c1,0,1.9,0,2.6,0
		c0.7,0,1.3,0.1,1.7,0.2s0.8,0.3,1.1,0.5s0.4,0.6,0.5,1c0.1,0.4,0.2,1,0.2,1.6c0,0.7,0,1.5,0,2.4c0,0.4,0,0.7,0,0.9
		c0,0.2-0.1,0.4-0.2,0.5c-0.1,0.1-0.2,0.2-0.5,0.2c-0.2,0-0.5,0-0.9,0h-8.5c0,0.7,0,1.2,0,1.6s0.1,0.6,0.3,0.8
		c0.2,0.2,0.4,0.3,0.8,0.3c0.4,0,0.9,0,1.6,0H29.2z M28.8,9.9c0-0.7,0-1.2,0-1.6c0-0.4-0.1-0.6-0.3-0.8c-0.2-0.2-0.4-0.3-0.8-0.3
		c-0.4,0-0.9,0-1.6,0h-2.3c-0.7,0-1.2,0-1.6,0c-0.4,0-0.6,0.1-0.8,0.3c-0.2,0.2-0.3,0.4-0.3,0.8s0,0.9,0,1.6H28.8z"/>
	<path class="st1" d="M41.4,14.9c0.3,0,0.6,0,0.8,0c0.2,0,0.3-0.1,0.4-0.2c0.1-0.1,0.1-0.2,0.2-0.4c0-0.2,0-0.4,0-0.8
		c0-0.3,0-0.6,0-0.8c0-0.2-0.1-0.3-0.2-0.4c-0.1-0.1-0.2-0.1-0.4-0.2c-0.2,0-0.4,0-0.8,0h-4.2c-0.9,0-1.6,0-2.1-0.1
		c-0.5,0-0.9-0.2-1.1-0.4c-0.2-0.2-0.4-0.6-0.4-1.1s-0.1-1.2-0.1-2.1s0-1.6,0.1-2.1s0.2-0.9,0.4-1.1C34.2,5.2,34.6,5,35.1,5
		c0.5,0,1.2-0.1,2.1-0.1h6.4c0.3,0,0.5,0,0.7,0c0.2,0,0.3,0.1,0.3,0.1s0.1,0.2,0.1,0.3c0,0.2,0,0.4,0,0.7s0,0.5,0,0.7
		c0,0.2-0.1,0.3-0.1,0.3s-0.2,0.1-0.3,0.1c-0.2,0-0.4,0-0.7,0h-6.4c-0.3,0-0.6,0-0.8,0S36.1,7.3,36,7.4c-0.1,0.1-0.1,0.2-0.2,0.4
		c0,0.2,0,0.4,0,0.8s0,0.6,0,0.8c0,0.2,0.1,0.3,0.2,0.4c0.1,0.1,0.2,0.1,0.4,0.2c0.2,0,0.4,0,0.8,0h4.2c0.9,0,1.6,0,2.1,0.1
		c0.5,0,0.9,0.2,1.1,0.4c0.2,0.2,0.4,0.6,0.4,1.1c0,0.5,0.1,1.2,0.1,2.1c0,0.9,0,1.6-0.1,2.1c0,0.5-0.2,0.9-0.4,1.1
		c-0.2,0.2-0.6,0.4-1.1,0.4c-0.5,0-1.2,0.1-2.1,0.1h-6.7c-0.3,0-0.5,0-0.7,0c-0.2,0-0.3-0.1-0.3-0.1s-0.1-0.2-0.1-0.3
		c0-0.2,0-0.4,0-0.7c0-0.3,0-0.5,0-0.7c0-0.2,0.1-0.3,0.1-0.3S33.9,15,34,15c0.2,0,0.4,0,0.7,0H41.4z"/>
	<path class="st1" d="M50.2,7.2h-2.3c-0.3,0-0.5,0-0.7,0c-0.2,0-0.3-0.1-0.3-0.1s-0.1-0.2-0.1-0.3c0-0.2,0-0.4,0-0.7s0-0.5,0-0.7
		c0-0.2,0.1-0.3,0.1-0.3s0.2-0.1,0.3-0.1c0.2,0,0.4,0,0.7,0h2.3V3c0-0.3,0-0.5,0-0.7s0.1-0.3,0.1-0.3c0.1-0.1,0.2-0.1,0.3-0.1
		c0.2,0,0.4,0,0.7,0c0.3,0,0.5,0,0.7,0c0.2,0,0.3,0.1,0.3,0.1c0.1,0.1,0.1,0.2,0.1,0.3c0,0.2,0,0.4,0,0.7v1.9h2.3c0.3,0,0.5,0,0.7,0
		c0.2,0,0.3,0.1,0.3,0.1s0.1,0.2,0.1,0.3c0,0.2,0,0.4,0,0.7s0,0.5,0,0.7c0,0.2-0.1,0.3-0.1,0.3s-0.2,0.1-0.3,0.1c-0.2,0-0.4,0-0.7,0
		h-2.3v8.9c0,0.3,0,0.5,0,0.7c0,0.2-0.1,0.3-0.1,0.3s-0.2,0.1-0.3,0.1c-0.2,0-0.4,0-0.7,0c-0.3,0-0.5,0-0.7,0
		c-0.2,0-0.3-0.1-0.3-0.1s-0.1-0.2-0.1-0.3c0-0.2,0-0.4,0-0.7V7.2z"/>
	<path class="st1" d="M67.6,14.9c0.3,0,0.5,0,0.7,0c0.2,0,0.3,0.1,0.3,0.1s0.1,0.2,0.1,0.3c0,0.2,0,0.4,0,0.7c0,0.3,0,0.5,0,0.7
		c0,0.2-0.1,0.3-0.1,0.3s-0.2,0.1-0.3,0.1c-0.2,0-0.4,0-0.7,0h-3.5c-1,0-1.9,0-2.6,0c-0.7,0-1.3-0.1-1.7-0.2
		c-0.5-0.1-0.8-0.3-1.1-0.5c-0.2-0.2-0.4-0.6-0.5-1.1c-0.1-0.5-0.2-1-0.2-1.7c0-0.7,0-1.6,0-2.6c0-1,0-1.9,0-2.6
		c0-0.7,0.1-1.3,0.2-1.7c0.1-0.5,0.3-0.8,0.5-1.1c0.2-0.2,0.6-0.4,1.1-0.5C60.3,5,60.9,5,61.6,5c0.7,0,1.6,0,2.6,0h3.5
		c0.3,0,0.5,0,0.7,0c0.2,0,0.3,0.1,0.3,0.1s0.1,0.2,0.1,0.3c0,0.2,0,0.4,0,0.7s0,0.5,0,0.7c0,0.2-0.1,0.3-0.1,0.3s-0.2,0.1-0.3,0.1
		c-0.2,0-0.4,0-0.7,0h-3.5c-1,0-1.7,0-2.2,0.1c-0.5,0-0.9,0.2-1.1,0.4c-0.2,0.2-0.4,0.6-0.4,1.1c0,0.5-0.1,1.3-0.1,2.2
		s0,1.7,0.1,2.2c0,0.5,0.2,0.9,0.4,1.1c0.2,0.2,0.6,0.4,1.1,0.4c0.5,0,1.3,0.1,2.2,0.1H67.6z"/>
	<path class="st1" d="M77.4,4.9c1,0,1.9,0,2.6,0c0.7,0,1.3,0.1,1.7,0.2s0.8,0.3,1.1,0.5c0.2,0.2,0.4,0.6,0.5,1.1
		c0.1,0.5,0.2,1,0.2,1.7c0,0.7,0,1.6,0,2.6c0,1,0,1.9,0,2.6c0,0.7-0.1,1.3-0.2,1.7c-0.1,0.5-0.3,0.8-0.5,1.1s-0.6,0.4-1.1,0.5
		c-0.5,0.1-1,0.2-1.7,0.2s-1.6,0-2.6,0c-1,0-1.9,0-2.6,0c-0.7,0-1.3-0.1-1.7-0.2c-0.5-0.1-0.8-0.3-1.1-0.5c-0.2-0.2-0.4-0.6-0.5-1.1
		c-0.1-0.5-0.2-1-0.2-1.7c0-0.7,0-1.6,0-2.6c0-1,0-1.9,0-2.6c0-0.7,0.1-1.3,0.2-1.7c0.1-0.5,0.3-0.8,0.5-1.1
		c0.2-0.2,0.6-0.4,1.1-0.5C73.5,5,74.1,5,74.8,5C75.5,4.9,76.3,4.9,77.4,4.9z M81.2,11.1c0-1,0-1.7-0.1-2.2S81,8,80.7,7.7
		c-0.2-0.2-0.6-0.4-1.1-0.4c-0.5,0-1.3-0.1-2.2-0.1s-1.7,0-2.2,0.1c-0.5,0-0.9,0.2-1.1,0.4c-0.2,0.2-0.4,0.6-0.4,1.1
		c0,0.5-0.1,1.3-0.1,2.2s0,1.7,0.1,2.2c0,0.5,0.2,0.9,0.4,1.1c0.2,0.2,0.6,0.4,1.1,0.4c0.5,0,1.3,0.1,2.2,0.1s1.7,0,2.2-0.1
		c0.5,0,0.9-0.2,1.1-0.4c0.2-0.2,0.4-0.6,0.4-1.1C81.2,12.8,81.2,12,81.2,11.1z"/>
	<path class="st1" d="M86,6.5c0-0.4,0-0.7,0-0.9c0-0.2,0.1-0.4,0.2-0.5C86.3,5,86.5,5,86.7,4.9c0.2,0,0.5,0,0.9,0h10.8
		c0.9,0,1.7,0,2.3,0c0.6,0,1.1,0.1,1.5,0.2c0.4,0.1,0.7,0.3,0.9,0.5s0.4,0.5,0.5,0.9c0.1,0.4,0.2,0.9,0.2,1.5c0,0.6,0,1.4,0,2.3v5.8
		c0,0.3,0,0.5,0,0.7c0,0.2-0.1,0.3-0.1,0.3s-0.2,0.1-0.3,0.1c-0.2,0-0.4,0-0.7,0s-0.5,0-0.7,0c-0.2,0-0.3-0.1-0.3-0.1
		s-0.1-0.2-0.1-0.3c0-0.2,0-0.4,0-0.7v-5.8c0-0.8,0-1.4,0-1.8c0-0.4-0.1-0.7-0.3-0.9s-0.5-0.3-0.9-0.3s-1,0-1.8,0h-2.3v8.9
		c0,0.3,0,0.5,0,0.7c0,0.2-0.1,0.3-0.1,0.3s-0.2,0.1-0.3,0.1c-0.2,0-0.4,0-0.7,0s-0.5,0-0.7,0c-0.2,0-0.3-0.1-0.3-0.1
		s-0.1-0.2-0.1-0.3c0-0.2,0-0.4,0-0.7V7.2h-5.4v8.9c0,0.3,0,0.5,0,0.7c0,0.2-0.1,0.3-0.1,0.3s-0.2,0.1-0.3,0.1c-0.2,0-0.4,0-0.7,0
		s-0.5,0-0.7,0c-0.2,0-0.3-0.1-0.3-0.1s-0.1-0.2-0.1-0.3c0-0.2,0-0.4,0-0.7V6.5z"/>
	<path class="st1" d="M106.3,6.5c0-0.4,0-0.7,0-0.9s0.1-0.4,0.2-0.5c0.1-0.1,0.2-0.2,0.5-0.2c0.2,0,0.5,0,0.9,0h10.8
		c0.9,0,1.7,0,2.3,0c0.6,0,1.1,0.1,1.5,0.2c0.4,0.1,0.7,0.3,0.9,0.5c0.2,0.2,0.4,0.5,0.5,0.9s0.2,0.9,0.2,1.5c0,0.6,0,1.4,0,2.3v5.8
		c0,0.3,0,0.5,0,0.7c0,0.2-0.1,0.3-0.1,0.3s-0.2,0.1-0.3,0.1c-0.2,0-0.4,0-0.7,0s-0.5,0-0.7,0c-0.2,0-0.3-0.1-0.3-0.1
		s-0.1-0.2-0.1-0.3c0-0.2,0-0.4,0-0.7v-5.8c0-0.8,0-1.4,0-1.8s-0.1-0.7-0.3-0.9s-0.5-0.3-0.9-0.3c-0.4,0-1,0-1.8,0h-2.3v8.9
		c0,0.3,0,0.5,0,0.7c0,0.2-0.1,0.3-0.1,0.3s-0.2,0.1-0.3,0.1c-0.2,0-0.4,0-0.7,0s-0.5,0-0.7,0c-0.2,0-0.3-0.1-0.3-0.1
		s-0.1-0.2-0.1-0.3c0-0.2,0-0.4,0-0.7V7.2h-5.4v8.9c0,0.3,0,0.5,0,0.7c0,0.2-0.1,0.3-0.1,0.3s-0.2,0.1-0.3,0.1c-0.2,0-0.4,0-0.7,0
		s-0.5,0-0.7,0c-0.2,0-0.3-0.1-0.3-0.1s-0.1-0.2-0.1-0.3c0-0.2,0-0.4,0-0.7V6.5z"/>
	<path class="st2" d="M134.1,1.8c1.3,0,2.4,0,3.2,0c0.9,0,1.6,0.1,2.2,0.3s1,0.4,1.3,0.7c0.3,0.3,0.5,0.8,0.7,1.3
		c0.1,0.6,0.2,1.3,0.3,2.2c0,0.9,0,2,0,3.2s0,2.4,0,3.2s-0.1,1.6-0.3,2.2s-0.4,1-0.7,1.3c-0.3,0.3-0.8,0.5-1.3,0.7s-1.3,0.2-2.2,0.3
		c-0.9,0-2,0-3.2,0s-2.4,0-3.2,0s-1.6-0.1-2.2-0.3s-1-0.4-1.3-0.7c-0.3-0.3-0.5-0.8-0.7-1.3s-0.2-1.3-0.3-2.2s0-2,0-3.2s0-2.4,0-3.2
		c0-0.9,0.1-1.6,0.3-2.2c0.1-0.6,0.4-1,0.7-1.3c0.3-0.3,0.8-0.5,1.3-0.7s1.3-0.2,2.2-0.3S132.9,1.8,134.1,1.8z M139.5,9.5
		c0-0.9,0-1.7,0-2.3s-0.1-1.1-0.2-1.5c-0.1-0.4-0.3-0.7-0.5-0.9s-0.5-0.4-0.9-0.5c-0.4-0.1-0.9-0.2-1.5-0.2c-0.6,0-1.4,0-2.3,0
		c-0.9,0-1.7,0-2.3,0c-0.6,0-1.1,0.1-1.5,0.2c-0.4,0.1-0.7,0.3-0.9,0.5s-0.4,0.5-0.5,0.9c-0.1,0.4-0.2,0.9-0.2,1.5
		c0,0.6,0,1.4,0,2.3s0,1.7,0,2.3c0,0.6,0.1,1.1,0.2,1.5c0.1,0.4,0.3,0.7,0.5,0.9s0.5,0.4,0.9,0.5c0.4,0.1,0.9,0.2,1.5,0.2
		c0.6,0,1.4,0,2.3,0c0.9,0,1.7,0,2.3,0c0.6,0,1.1-0.1,1.5-0.2c0.4-0.1,0.7-0.3,0.9-0.5s0.4-0.5,0.5-0.9c0.1-0.4,0.2-0.9,0.2-1.5
		C139.5,11.2,139.5,10.4,139.5,9.5z"/>
	<path class="st2" d="M144.5,3.4c0-0.4,0-0.7,0-0.9c0-0.2,0.1-0.4,0.2-0.5c0.1-0.1,0.2-0.2,0.5-0.2c0.2,0,0.5,0,0.9,0h5.4
		c1.2,0,2.1,0,2.9,0s1.4,0.1,2,0.2c0.5,0.1,0.9,0.3,1.2,0.6s0.5,0.7,0.6,1.2c0.1,0.5,0.2,1.2,0.2,2c0,0.8,0,1.8,0,2.9v7.3
		c0,0.3,0,0.5,0,0.7c0,0.2-0.1,0.3-0.1,0.3s-0.2,0.1-0.3,0.1c-0.2,0-0.4,0-0.7,0c-0.3,0-0.5,0-0.7,0c-0.2,0-0.3-0.1-0.3-0.1
		s-0.1-0.2-0.1-0.3c0-0.2,0-0.4,0-0.7V8.8c0-1.2,0-2-0.1-2.7c0-0.6-0.2-1.1-0.5-1.4s-0.7-0.5-1.4-0.5c-0.6,0-1.5-0.1-2.7-0.1h-4.6
		v12c0,0.3,0,0.5,0,0.7c0,0.2-0.1,0.3-0.1,0.3s-0.2,0.1-0.3,0.1c-0.2,0-0.4,0-0.7,0c-0.3,0-0.5,0-0.7,0c-0.2,0-0.3-0.1-0.3-0.1
		s-0.1-0.2-0.1-0.3c0-0.2,0-0.4,0-0.7V3.4z"/>
	<path class="st2" d="M172.8,14.9c0.3,0,0.5,0,0.7,0c0.2,0,0.3,0.1,0.3,0.1s0.1,0.2,0.1,0.3c0,0.2,0,0.4,0,0.7c0,0.3,0,0.5,0,0.7
		c0,0.2-0.1,0.3-0.1,0.3s-0.2,0.1-0.3,0.1c-0.2,0-0.4,0-0.7,0h-4.2c-1.3,0-2.4,0-3.2,0c-0.9,0-1.6-0.1-2.2-0.3s-1-0.4-1.3-0.7
		c-0.3-0.3-0.5-0.8-0.7-1.3s-0.2-1.3-0.3-2.2c0-0.9,0-2,0-3.2s0-2.4,0-3.2c0-0.9,0.1-1.6,0.3-2.2c0.1-0.6,0.4-1,0.7-1.3
		c0.3-0.3,0.8-0.5,1.3-0.7s1.3-0.2,2.2-0.3c0.9,0,2,0,3.2,0h4.2c0.3,0,0.5,0,0.7,0c0.2,0,0.3,0.1,0.3,0.1c0.1,0.1,0.1,0.2,0.1,0.3
		s0,0.4,0,0.7s0,0.5,0,0.7s-0.1,0.3-0.1,0.3c-0.1,0.1-0.2,0.1-0.3,0.1c-0.2,0-0.4,0-0.7,0h-5.4c-1.1,0-1.9,0-2.4,0.1
		c-0.6,0-1,0.2-1.3,0.5c-0.3,0.3-0.4,0.7-0.5,1.3c0,0.6-0.1,1.4-0.1,2.4h7.3c0.3,0,0.5,0,0.7,0c0.2,0,0.3,0.1,0.3,0.1
		s0.1,0.2,0.1,0.3c0,0.2,0,0.4,0,0.7s0,0.5,0,0.7c0,0.2-0.1,0.3-0.1,0.3s-0.2,0.1-0.3,0.1s-0.4,0-0.7,0h-7.3c0,1.1,0,1.9,0.1,2.4
		c0,0.6,0.2,1,0.5,1.3c0.3,0.3,0.7,0.4,1.3,0.5c0.6,0,1.4,0.1,2.4,0.1H172.8z"/>
</g>
</svg>
